<svg id="a" xmlns="http://www.w3.org/2000/svg" viewBox="0 0 512 512"><defs><style>.b{fill:#97cfca;}.c{fill:#abdfd5;}.d{fill:#81c0ba;}.e{fill:#2c1c12;}</style></defs><path class="c" d="m137.62,70.61l100.46-46.19s8.7-4.35,14.5-4.35,14.71,4.76,14.71,4.76l231.79,106.13-243.7,108.5L12.93,129.64s2.9-4.56,24.23-14.08c21.33-9.53,100.46-44.95,100.46-44.95Z"/><path class="b" d="m255.37,239.46v252.44c-5.35-.37-14.04-5.15-14.04-5.15l-151.54-71.88s-12.94-5.52-12.94-12.94v-174.68l-63.85-31.12v-26.48l-.07-40.02,242.44,109.82Z"/><path class="d" d="m498.45,130.97v69.24l-64.59,31.39v171.94s-1.74,6.39-13.11,11.93c-11.33,5.52-153.01,72.71-153.01,72.71,0,0-7.52,3.74-12.37,3.74v-252.74l243.08-108.22Z"/><ellipse class="e" cx="186.05" cy="300.3" rx="31.52" ry="27.48" transform="translate(-164.67 257.96) rotate(-51.34)"/><ellipse class="e" cx="323.01" cy="300.3" rx="27.48" ry="31.52" transform="translate(-117.96 308.02) rotate(-43.92)"/><path class="e" d="m297.09,341.81v7.56c0,1.75-2.24,13.21-12.71,13.21s-30.75-43.54-30.75-43.54c0,0-20.28,43.54-30.75,43.54s-9.76-11.28-9.76-13.02v-7.56s-23.01,19.15-23.01,32.7,11.12,10.95,11.53,10.95,5.54-11.76,9.03-11.76,14.78,14.63,17.11,14.63,12.91-14.38,16.31-14.38,11.27,11.8,11.27,11.8c0,0,8.39-11.8,11.8-11.8s13.55,14.38,15.87,14.38,11.63-14.63,15.12-14.63,14.38,12.05,14.79,12.05,6.07,1.66,6.07-11.88-21.94-32.24-21.94-32.24Z"/></svg>
